REM DIRINDEX 1\2\6,1\2\7,1\2\8,1\2\9,1\3\10,1\3\11,1\4\12,1\4\13,1\4\14,1\5\15,1\5\16,1\5\17
REM DIRNAME folder01,folder02,folder03,folder04,folder05,folder06,folder07,folder08,folder09,folder10,folder11,folder12,folder13,folder14,folder15,folder16,folder17
TITLE ""
FILE "1400_2_sec05_0401_0415.mp3" MP3
  TRACK 01 AUDIO
    TITLE "0:"
    INDEX 01 00:00:00
  TRACK 02 AUDIO
    TITLE "12:cjc029_2383"
    INDEX 01 00:03:25
  TRACK 03 AUDIO
    TITLE "0:"
    INDEX 01 00:04:64
  TRACK 04 AUDIO
    TITLE "12:cjc029_2384"
    INDEX 01 00:05:44
  TRACK 05 AUDIO
    TITLE "0:"
    INDEX 01 00:06:67
  TRACK 06 AUDIO
    TITLE "13:cjc029_2385"
    INDEX 01 00:07:66
  TRACK 07 AUDIO
    TITLE "0:"
    INDEX 01 00:09:16
  TRACK 08 AUDIO
    TITLE "14:cjc029_2386"
    INDEX 01 00:09:20
  TRACK 09 AUDIO
    TITLE "0:"
    INDEX 01 00:13:24
  TRACK 10 AUDIO
    TITLE "13:cjc029_2387"
    INDEX 01 00:14:06
  TRACK 11 AUDIO
    TITLE "0:"
    INDEX 01 00:15:21
  TRACK 12 AUDIO
    TITLE "14:cjc029_2388"
    INDEX 01 00:15:23
  TRACK 13 AUDIO
    TITLE "0:"
    INDEX 01 00:19:52
  TRACK 14 AUDIO
    TITLE "13:cjc029_2389"
    INDEX 01 00:20:36
  TRACK 15 AUDIO
    TITLE "0:"
    INDEX 01 00:21:49
  TRACK 16 AUDIO
    TITLE "14:cjc029_2390"
    INDEX 01 00:21:53
  TRACK 17 AUDIO
    TITLE "0:"
    INDEX 01 00:25:21
  TRACK 18 AUDIO
    TITLE "13:cjc029_2391"
    INDEX 01 00:26:05
  TRACK 19 AUDIO
    TITLE "0:"
    INDEX 01 00:27:24
  TRACK 20 AUDIO
    TITLE "14:cjc029_2392"
    INDEX 01 00:27:30
  TRACK 21 AUDIO
    TITLE "0:"
    INDEX 01 00:29:72
  TRACK 22 AUDIO
    TITLE "13:cjc029_2393"
    INDEX 01 00:30:55
  TRACK 23 AUDIO
    TITLE "0:"
    INDEX 01 00:31:61
  TRACK 24 AUDIO
    TITLE "14:cjc029_2394"
    INDEX 01 00:31:67
  TRACK 25 AUDIO
    TITLE "0:"
    INDEX 01 00:36:15
  TRACK 26 AUDIO
    TITLE "13:cjc029_2395"
    INDEX 01 00:36:74
  TRACK 27 AUDIO
    TITLE "0:"
    INDEX 01 00:38:31
  TRACK 28 AUDIO
    TITLE "14:cjc029_2396"
    INDEX 01 00:38:35
  TRACK 29 AUDIO
    TITLE "0:"
    INDEX 01 00:44:18
  TRACK 30 AUDIO
    TITLE "13:cjc029_2397"
    INDEX 01 00:45:00
  TRACK 31 AUDIO
    TITLE "0:"
    INDEX 01 00:46:15
  TRACK 32 AUDIO
    TITLE "14:cjc029_2398"
    INDEX 01 00:46:21
  TRACK 33 AUDIO
    TITLE "0:"
    INDEX 01 00:47:32
  TRACK 34 AUDIO
    TITLE "13:cjc029_2399"
    INDEX 01 00:48:14
  TRACK 35 AUDIO
    TITLE "0:"
    INDEX 01 00:49:25
  TRACK 36 AUDIO
    TITLE "14:cjc029_2400"
    INDEX 01 00:49:29
  TRACK 37 AUDIO
    TITLE "0:"
    INDEX 01 00:52:10
  TRACK 38 AUDIO
    TITLE "13:cjc029_2401"
    INDEX 01 00:52:69
  TRACK 39 AUDIO
    TITLE "0:"
    INDEX 01 00:54:07
  TRACK 40 AUDIO
    TITLE "14:cjc029_2402"
    INDEX 01 00:54:09
  TRACK 41 AUDIO
    TITLE "0:"
    INDEX 01 00:55:18
  TRACK 42 AUDIO
    TITLE "13:cjc029_2403"
    INDEX 01 00:56:00
  TRACK 43 AUDIO
    TITLE "0:"
    INDEX 01 00:57:19
  TRACK 44 AUDIO
    TITLE "14:cjc029_2404"
    INDEX 01 00:57:23
  TRACK 45 AUDIO
    TITLE "0:"
    INDEX 01 00:58:52
  TRACK 46 AUDIO
    TITLE "13:cjc029_2405"
    INDEX 01 00:59:34
  TRACK 47 AUDIO
    TITLE "0:"
    INDEX 01 01:00:37
  TRACK 48 AUDIO
    TITLE "14:cjc029_2406"
    INDEX 01 01:00:41
  TRACK 49 AUDIO
    TITLE "0:"
    INDEX 01 01:01:72
  TRACK 50 AUDIO
    TITLE "13:cjc029_2407"
    INDEX 01 01:02:55
  TRACK 51 AUDIO
    TITLE "0:"
    INDEX 01 01:04:07
  TRACK 52 AUDIO
    TITLE "14:cjc029_2408"
    INDEX 01 01:04:09
  TRACK 53 AUDIO
    TITLE "0:"
    INDEX 01 01:05:28
  TRACK 54 AUDIO
    TITLE "13:cjc029_2409"
    INDEX 01 01:06:08
  TRACK 55 AUDIO
    TITLE "0:"
    INDEX 01 01:07:19
  TRACK 56 AUDIO
    TITLE "14:cjc029_2410"
    INDEX 01 01:07:25
  TRACK 57 AUDIO
    TITLE "0:"
    INDEX 01 01:08:56
  TRACK 58 AUDIO
    TITLE "13:cjc029_2411"
    INDEX 01 01:09:38
  TRACK 59 AUDIO
    TITLE "0:"
    INDEX 01 01:10:49
  TRACK 60 AUDIO
    TITLE "14:cjc029_2412"
    INDEX 01 01:10:59
  TRACK 61 AUDIO
    TITLE "0:"
    INDEX 01 01:13:16
  TRACK 62 AUDIO
    TITLE "13:cjc029_2413"
    INDEX 01 01:14:08
  TRACK 63 AUDIO
    TITLE "0:"
    INDEX 01 01:15:09
  TRACK 64 AUDIO
    TITLE "14:cjc029_2414"
    INDEX 01 01:15:13
  TRACK 65 AUDIO
    TITLE "0:"
    INDEX 01 01:19:01
